<svg width="73" height="24" viewBox="0 0 73 24" fill="none" xmlns="http://www.w3.org/2000/svg">
<path d="M7.904 15.728H3.248L2.448 18H0.544L4.528 6.864H6.64L10.624 18H8.704L7.904 15.728ZM7.392 14.24L5.584 9.072L3.76 14.24H7.392ZM14.1803 10.496C14.4896 10.0693 14.9109 9.72267 15.4443 9.456C15.9883 9.17867 16.5909 9.04 17.2523 9.04C18.0309 9.04 18.7349 9.22667 19.3643 9.6C19.9936 9.97333 20.4896 10.5067 20.8523 11.2C21.2149 11.8827 21.3963 12.6667 21.3963 13.552C21.3963 14.4373 21.2149 15.232 20.8523 15.936C20.4896 16.6293 19.9883 17.1733 19.3483 17.568C18.7189 17.952 18.0203 18.144 17.2523 18.144C16.5696 18.144 15.9616 18.0107 15.4283 17.744C14.9056 17.4773 14.4896 17.136 14.1803 16.72V18H12.3563V6.16H14.1803V10.496ZM19.5403 13.552C19.5403 12.944 19.4123 12.4213 19.1562 11.984C18.9109 11.536 18.5803 11.2 18.1643 10.976C17.7589 10.7413 17.3216 10.624 16.8523 10.624C16.3936 10.624 15.9563 10.7413 15.5403 10.976C15.1349 11.2107 14.8043 11.552 14.5483 12C14.3029 12.448 14.1803 12.976 14.1803 13.584C14.1803 14.192 14.3029 14.7253 14.5483 15.184C14.8043 15.632 15.1349 15.9733 15.5403 16.208C15.9563 16.4427 16.3936 16.56 16.8523 16.56C17.3216 16.56 17.7589 16.4427 18.1643 16.208C18.5803 15.9627 18.9109 15.6107 19.1562 15.152C19.4123 14.6933 19.5403 14.16 19.5403 13.552ZM27.024 18.144C26.192 18.144 25.44 17.9573 24.768 17.584C24.096 17.2 23.568 16.6667 23.184 15.984C22.8 15.2907 22.608 14.4907 22.608 13.584C22.608 12.688 22.8053 11.8933 23.2 11.2C23.5947 10.5067 24.1333 9.97333 24.816 9.6C25.4987 9.22667 26.2613 9.04 27.104 9.04C27.9467 9.04 28.7093 9.22667 29.392 9.6C30.0747 9.97333 30.6133 10.5067 31.008 11.2C31.4027 11.8933 31.6 12.688 31.6 13.584C31.6 14.48 31.3973 15.2747 30.992 15.968C30.5867 16.6613 30.032 17.2 29.328 17.584C28.6347 17.9573 27.8667 18.144 27.024 18.144ZM27.024 16.56C27.4933 16.56 27.9307 16.448 28.336 16.224C28.752 16 29.088 15.664 29.344 15.216C29.6 14.768 29.728 14.224 29.728 13.584C29.728 12.944 29.6053 12.4053 29.36 11.968C29.1147 11.52 28.7893 11.184 28.384 10.96C27.9787 10.736 27.5413 10.624 27.072 10.624C26.6027 10.624 26.1653 10.736 25.76 10.96C25.3653 11.184 25.0507 11.52 24.816 11.968C24.5813 12.4053 24.464 12.944 24.464 13.584C24.464 14.5333 24.704 15.2693 25.184 15.792C25.6747 16.304 26.288 16.56 27.024 16.56ZM41.3871 9.184V18H39.5631V16.96C39.2751 17.3227 38.8965 17.6107 38.4271 17.824C37.9685 18.0267 37.4778 18.128 36.9551 18.128C36.2618 18.128 35.6378 17.984 35.0831 17.696C34.5391 17.408 34.1071 16.9813 33.7871 16.416C33.4778 15.8507 33.3231 15.168 33.3231 14.368V9.184H35.1311V14.096C35.1311 14.8853 35.3285 15.4933 35.7231 15.92C36.1178 16.336 36.6565 16.544 37.3391 16.544C38.0218 16.544 38.5605 16.336 38.9551 15.92C39.3605 15.4933 39.5631 14.8853 39.5631 14.096V9.184H41.3871ZM45.9218 10.672V15.552C45.9218 15.8827 45.9964 16.1227 46.1458 16.272C46.3058 16.4107 46.5724 16.48 46.9458 16.48H48.0658V18H46.6258C45.8044 18 45.1751 17.808 44.7378 17.424C44.3004 17.04 44.0818 16.416 44.0818 15.552V10.672H43.0418V9.184H44.0818V6.992H45.9218V9.184H48.0658V10.672H45.9218ZM55.7111 6.88V13.968C55.7111 14.8107 55.9298 15.4453 56.3671 15.872C56.8151 16.2987 57.4338 16.512 58.2231 16.512C59.0231 16.512 59.6418 16.2987 60.0791 15.872C60.5271 15.4453 60.7511 14.8107 60.7511 13.968V6.88H62.5751V13.936C62.5751 14.8427 62.3778 15.6107 61.9831 16.24C61.5885 16.8693 61.0605 17.3387 60.3991 17.648C59.7378 17.9573 59.0071 18.112 58.2071 18.112C57.4071 18.112 56.6765 17.9573 56.0151 17.648C55.3645 17.3387 54.8471 16.8693 54.4631 16.24C54.0791 15.6107 53.8871 14.8427 53.8871 13.936V6.88H55.7111ZM68.15 18.144C67.4567 18.144 66.8327 18.0213 66.278 17.776C65.734 17.52 65.302 17.1787 64.982 16.752C64.662 16.3147 64.4913 15.8293 64.47 15.296H66.358C66.39 15.6693 66.566 15.984 66.886 16.24C67.2167 16.4853 67.6273 16.608 68.118 16.608C68.63 16.608 69.0247 16.512 69.302 16.32C69.59 16.1173 69.734 15.8613 69.734 15.552C69.734 15.2213 69.574 14.976 69.254 14.816C68.9447 14.656 68.4487 14.48 67.766 14.288C67.1047 14.1067 66.566 13.9307 66.15 13.76C65.734 13.5893 65.3713 13.328 65.062 12.976C64.7633 12.624 64.614 12.16 64.614 11.584C64.614 11.1147 64.7527 10.688 65.03 10.304C65.3073 9.90933 65.702 9.6 66.214 9.376C66.7367 9.152 67.334 9.04 68.006 9.04C69.0087 9.04 69.814 9.296 70.422 9.808C71.0407 10.3093 71.3713 10.9973 71.414 11.872H69.59C69.558 11.4773 69.398 11.1627 69.11 10.928C68.822 10.6933 68.4327 10.576 67.942 10.576C67.462 10.576 67.094 10.6667 66.838 10.848C66.582 11.0293 66.454 11.2693 66.454 11.568C66.454 11.8027 66.5393 12 66.71 12.16C66.8807 12.32 67.0887 12.448 67.334 12.544C67.5793 12.6293 67.942 12.7413 68.422 12.88C69.062 13.0507 69.5847 13.2267 69.99 13.408C70.406 13.5787 70.7633 13.8347 71.062 14.176C71.3607 14.5173 71.5153 14.9707 71.526 15.536C71.526 16.0373 71.3873 16.4853 71.11 16.88C70.8327 17.2747 70.438 17.584 69.926 17.808C69.4247 18.032 68.8327 18.144 68.15 18.144Z" fill="#ECA22D"/>
</svg>
