<svg width="235" height="72" viewBox="0 0 235 72" fill="none" xmlns="http://www.w3.org/2000/svg">
<path fill-rule="evenodd" clip-rule="evenodd" d="M22.424 6.53468C22.4642 2.92652 25.4568 0.00599719 29.1192 8.86626e-06C32.9023 -0.00596167 35.9771 3.00426 35.9753 6.71236C35.9745 10.3308 32.7432 13.5058 29.085 13.4838C25.4149 13.4614 22.3821 10.2983 22.424 6.53468Z" fill="#ECA22D"/>
<path fill-rule="evenodd" clip-rule="evenodd" d="M35.9685 65.4531H35.9711C35.9634 48.3596 35.9557 31.267 35.9488 14.1752C30.8739 16.93 26.0942 20.2025 20.5213 22.4149C20.5213 22.4149 23.3197 24.2514 23.4267 30.2479C23.614 30.8527 23.4506 31.5079 23.4515 32.1255C23.4532 33.036 23.4541 33.9475 23.4558 34.8589H23.4335V59.8871C23.4267 60.9814 23.431 62.0756 23.4215 63.169C23.4207 63.3296 23.4267 63.4714 23.4335 63.614V66.6191C23.4275 67.4631 23.4284 68.3053 23.4215 69.1484C23.407 70.9405 23.7945 71.6265 25.7374 71.5248C29.1415 71.348 32.5593 71.4488 35.9711 71.4326C35.9702 69.4388 35.9694 67.446 35.9685 65.4531Z" fill="#0C2D46"/>
<path fill-rule="evenodd" clip-rule="evenodd" d="M116.24 72H117.154V7.11035H116.24V72Z" fill="#ECA22D"/>
<path fill-rule="evenodd" clip-rule="evenodd" d="M132.673 9.01267V23.16H134.805C136.711 23.16 138.157 22.6347 139.143 21.5832C140.314 20.3309 140.899 18.3278 140.899 15.573C140.899 13.3033 140.38 11.6257 139.344 10.54C138.374 9.52264 136.97 9.01267 135.131 9.01267H132.673ZM128.911 7.56053H137.488C139.996 7.56053 141.927 8.38654 143.281 10.0394C144.468 11.4916 145.062 13.3443 145.062 15.5977C145.062 18.3696 144.184 20.5812 142.429 22.2341C140.757 23.8203 138.592 24.613 135.933 24.613H128.911V7.56053Z" fill="#0C2D46"/>
<path fill-rule="evenodd" clip-rule="evenodd" d="M170.09 19.3232C170.792 17.9376 171.42 16.7102 171.971 15.6424C172.656 14.3064 173.316 12.9961 173.953 11.7105C174.855 9.87481 175.515 8.48929 175.933 7.55393C176.168 7.58981 176.372 7.61971 176.548 7.64619C176.723 7.67267 176.869 7.68548 176.987 7.68548C177.103 7.68548 177.279 7.6684 177.514 7.63337C177.747 7.5975 177.931 7.57187 178.065 7.55393C178.299 9.67492 178.542 11.7857 178.793 13.8896C179.177 17.1945 179.403 19.0814 179.469 19.5487C179.687 21.1008 179.954 22.8288 180.272 24.732C180.021 24.732 179.645 24.7115 179.143 24.6722C178.642 24.6321 178.324 24.6124 178.19 24.6124C177.906 24.6124 177.526 24.6321 177.05 24.6722C176.573 24.7115 176.276 24.732 176.159 24.732C176.159 23.1466 176.034 21.2904 175.783 19.1634C175.532 17.0365 175.298 15.0043 175.08 13.0695C174.446 14.3551 173.814 15.6364 173.187 16.9126C172.561 18.1896 171.937 19.4633 171.32 20.7318C170.9 21.5996 170.299 22.8937 169.513 24.6124C169.246 24.5791 169.045 24.5629 168.911 24.5629C168.845 24.5629 168.727 24.5791 168.561 24.6124C167.992 23.4105 167.424 22.2172 166.856 21.0316C166.136 19.5632 165.517 18.3024 164.999 17.2509C164.347 15.9491 163.703 14.6464 163.068 13.3446C162.818 15.2315 162.642 16.6085 162.542 17.4764C162.374 18.8619 162.244 20.156 162.153 21.357C162.06 22.5598 162.015 23.6864 162.015 24.738C161.747 24.7047 161.517 24.6756 161.326 24.65C161.132 24.6252 160.97 24.6124 160.836 24.6124C160.586 24.6124 160.377 24.6244 160.209 24.6483C160.042 24.6722 159.867 24.6995 159.683 24.732C159.984 23.0962 160.276 21.3348 160.56 19.4479C160.728 18.3964 161 16.5103 161.375 13.7888C161.752 11.0681 162.04 8.98985 162.24 7.55393C162.474 7.58981 162.676 7.61971 162.842 7.64619C163.01 7.67267 163.152 7.68548 163.268 7.68548C163.503 7.68548 163.707 7.6684 163.884 7.63337C164.059 7.5975 164.205 7.57187 164.322 7.55393C164.74 8.4722 165.358 9.77487 166.178 11.4602C166.813 12.7629 167.457 14.0732 168.109 15.3913C168.761 16.7102 169.421 18.0214 170.09 19.3232Z" fill="#0C2D46"/>
<path fill-rule="evenodd" clip-rule="evenodd" d="M191.733 8.61219C189.944 8.61219 188.581 9.27847 187.646 10.6119C186.659 12.0111 186.166 14.0868 186.166 16.8365C186.166 18.6696 186.567 20.1952 187.369 21.4107C188.306 22.8279 189.651 23.536 191.407 23.536C193.229 23.536 194.641 22.7279 195.645 21.1109C196.548 19.6451 196.999 17.7863 196.999 15.5364C196.999 13.6862 196.598 12.1289 195.796 10.8613C194.843 9.36218 193.489 8.61219 191.733 8.61219ZM201.162 16.0113C201.162 18.5457 200.284 20.6625 198.529 22.3632C196.69 24.1468 194.274 25.0385 191.282 25.0385C188.456 25.0385 186.204 24.2552 184.522 22.6886C182.842 21.1212 182.003 18.9293 182.003 16.1113C182.003 13.5273 182.864 11.4029 184.586 9.73547C186.392 7.9852 188.824 7.10964 191.883 7.10964C195.127 7.10964 197.567 8.10992 199.206 10.1105C200.51 11.7104 201.162 13.6785 201.162 16.0113Z" fill="#0C2D46"/>
<path fill-rule="evenodd" clip-rule="evenodd" d="M204.122 24.6878V7.5601H206.604C207.708 8.76197 208.903 10.0475 210.192 11.4168C210.91 12.1677 212.134 13.478 213.865 15.3479C215.595 17.2177 216.787 18.5281 217.439 19.2789V7.5601L218.441 7.63527L219.445 7.5601V24.7382L217.314 24.7125C215.892 23.1442 214.479 21.5665 213.076 19.9802C211.604 18.3444 210.199 16.8248 208.862 15.4231L206.129 12.5683V24.7382L205.125 24.6126L204.122 24.6878Z" fill="#0C2D46"/>
<path fill-rule="evenodd" clip-rule="evenodd" d="M230.453 9.33837V24.738C230.169 24.738 229.936 24.7294 229.752 24.7132C229.032 24.6457 228.64 24.6124 228.573 24.6124C228.288 24.6124 227.92 24.6338 227.469 24.6756C227.018 24.7166 226.759 24.738 226.693 24.738V9.33837C225.805 9.33837 225.032 9.36741 224.372 9.42635C223.711 9.48444 222.93 9.57242 222.027 9.6886C222.06 9.4554 222.09 9.25039 222.115 9.07528C222.14 8.90016 222.152 8.74641 222.152 8.6123C222.152 8.37824 222.135 8.17409 222.102 7.99898C222.069 7.82387 222.044 7.6778 222.027 7.55992H234.942C234.909 7.79397 234.88 7.99898 234.855 8.17409C234.829 8.3492 234.817 8.49527 234.817 8.6123C234.817 8.86258 234.834 9.07528 234.867 9.25039C234.9 9.42635 234.926 9.57242 234.942 9.6886C233.722 9.53826 232.987 9.4554 232.736 9.43831C231.983 9.37169 231.222 9.33837 230.453 9.33837Z" fill="#0C2D46"/>
<path fill-rule="evenodd" clip-rule="evenodd" d="M129.424 39.7344V30.4706L130.019 30.5116L130.616 30.4706V39.7208L130.019 39.6806L129.424 39.7344Z" fill="#879DA5"/>
<path fill-rule="evenodd" clip-rule="evenodd" d="M141.111 30.4708V39.7346H140.704L139.993 38.9018L134.149 32.432H134.014V39.721L133.635 39.68L133.255 39.7346V30.4708L133.786 30.4682L140.21 37.4411L140.352 37.4351V30.4708L140.732 30.5118L141.111 30.4708Z" fill="#879DA5"/>
<path fill-rule="evenodd" clip-rule="evenodd" d="M143.279 37.895H143.415C143.706 38.3597 144.006 38.6989 144.315 38.9124C144.679 39.1627 145.115 39.2883 145.624 39.2883C146.169 39.2883 146.621 39.0969 146.98 38.7142C147.339 38.3324 147.518 37.866 147.518 37.3167C147.518 36.6325 147.153 36.1012 146.422 35.7237C145.735 35.4255 145.054 35.1249 144.376 34.8182C143.645 34.3774 143.279 33.7248 143.279 32.8604C143.279 32.0326 143.578 31.3843 144.173 30.9162C144.723 30.484 145.428 30.2678 146.286 30.2678C146.647 30.2678 147 30.3225 147.343 30.4301C147.685 30.5386 147.979 30.7009 148.222 30.917C148.16 31.0614 148.106 31.1964 148.061 31.3228C148.051 31.3501 147.984 31.5842 147.858 32.0258H147.722C147.577 31.6482 147.363 31.357 147.079 31.1537C146.794 30.9512 146.449 30.8496 146.042 30.8496C145.563 30.8496 145.16 30.9965 144.829 31.2886C144.501 31.5808 144.336 31.9617 144.336 32.4298C144.336 33.1132 144.701 33.6445 145.433 34.0229C146.119 34.3287 146.805 34.6303 147.492 34.9275C148.232 35.3598 148.602 35.9808 148.602 36.7914C148.602 37.7362 148.277 38.4921 147.627 39.0593C147.013 39.5992 146.222 39.87 145.257 39.87C144.887 39.87 144.479 39.7982 144.038 39.6556C143.595 39.5121 143.266 39.3233 143.049 39.0901C143.114 38.8936 143.159 38.7125 143.189 38.5468C143.217 38.3811 143.247 38.1641 143.279 37.895Z" fill="#879DA5"/>
<path fill-rule="evenodd" clip-rule="evenodd" d="M153.639 31.1198V39.7344L153.044 39.7079L152.448 39.7481V31.1198C151.744 31.1198 151.242 31.1292 150.945 31.1471C150.646 31.165 150.159 31.2095 149.482 31.2821L149.523 30.8763L149.482 30.4706H156.47L156.43 30.8763L156.47 31.2821C156.136 31.2462 155.714 31.2095 155.204 31.1736C154.693 31.1377 154.172 31.1198 153.639 31.1198Z" fill="#879DA5"/>
<path fill-rule="evenodd" clip-rule="evenodd" d="M158.028 39.7344V30.4706L158.623 30.5116L159.221 30.4706V39.7208L158.623 39.6806L158.028 39.7344Z" fill="#879DA5"/>
<path fill-rule="evenodd" clip-rule="evenodd" d="M164.935 31.1198V39.7344L164.34 39.7079L163.744 39.7481V31.1198C163.04 31.1198 162.538 31.1292 162.241 31.1471C161.942 31.165 161.455 31.2095 160.778 31.2821L160.819 30.8763L160.778 30.4706H167.766L167.726 30.8763L167.766 31.2821C167.432 31.2462 167.01 31.2095 166.5 31.1736C165.989 31.1377 165.468 31.1198 164.935 31.1198Z" fill="#879DA5"/>
<path fill-rule="evenodd" clip-rule="evenodd" d="M170.502 30.4708V35.643C170.502 36.885 170.709 37.7811 171.125 38.3295C171.585 38.9419 172.375 39.2469 173.495 39.2469C174.516 39.2469 175.269 38.9009 175.758 38.2082C176.199 37.5778 176.421 36.6774 176.421 35.5072V30.4708L176.8 30.5118L177.18 30.4708V35.8454C177.18 37.1507 176.825 38.1475 176.116 38.8369C175.407 39.5262 174.443 39.8696 173.225 39.8696C171.96 39.8696 170.981 39.5553 170.285 38.924C169.906 38.5823 169.639 38.1142 169.487 37.5197C169.369 37.0704 169.31 36.5211 169.31 35.8719V30.4708L169.906 30.5118L170.502 30.4708Z" fill="#879DA5"/>
<path fill-rule="evenodd" clip-rule="evenodd" d="M183.004 31.1198V39.7344L182.409 39.7079L181.812 39.7481V31.1198C181.108 31.1198 180.607 31.1292 180.309 31.1471C180.011 31.165 179.524 31.2095 178.846 31.2821L178.887 30.8763L178.846 30.4706H185.835L185.795 30.8763L185.835 31.2821C185.5 31.2462 185.079 31.2095 184.569 31.1736C184.058 31.1377 183.537 31.1198 183.004 31.1198Z" fill="#879DA5"/>
<path fill-rule="evenodd" clip-rule="evenodd" d="M188.503 31.1064V34.501H190.603C190.774 34.501 191.003 34.4925 191.287 34.4737C191.571 34.4557 191.745 34.4463 191.808 34.4463L191.767 34.7983L191.808 35.1775C191.646 35.1775 191.42 35.1639 191.131 35.1365C190.842 35.1101 190.666 35.0955 190.603 35.0955H188.503V39.0445C188.792 39.0445 189.265 39.036 189.919 39.0181C190.574 38.9993 190.918 38.9899 190.955 38.9899C191.207 38.9899 191.393 38.9839 191.51 38.9702C191.628 38.9565 191.858 38.9224 192.201 38.8694L192.161 39.2752L192.201 39.6801H187.311V30.4709H192.12L192.079 30.8604L192.12 31.255C191.849 31.2012 191.628 31.1628 191.456 31.1406C191.284 31.1184 191.1 31.1064 190.901 31.1064H189.547H188.503Z" fill="#879DA5"/>
<path fill-rule="evenodd" clip-rule="evenodd" d="M201.716 33.5756C201.423 33.5483 201.18 33.5346 200.987 33.5346C199.534 33.5346 198.421 34.0915 197.649 35.2054C197.345 35.6471 197.088 36.1527 196.879 36.7233C196.668 37.2948 196.564 37.7723 196.564 38.1584C196.564 38.4292 196.642 38.6504 196.799 38.8247C196.957 38.9981 197.157 39.0844 197.4 39.0844C197.975 39.0844 198.609 38.624 199.306 37.7031C200.001 36.7823 200.349 35.9392 200.349 35.1721C200.349 35.0013 200.304 34.8569 200.213 34.7382C200.122 34.6194 200.012 34.5596 199.885 34.5596C199.444 34.5596 199.021 35.0013 198.618 35.8837C198.591 35.7735 198.576 35.6769 198.576 35.5941C198.576 35.2524 198.789 34.8936 199.214 34.5186C199.639 34.1437 200.042 33.9557 200.424 33.9557C200.678 33.9557 200.893 34.0591 201.07 34.2667C201.247 34.4734 201.335 34.7262 201.335 35.0235C201.335 36.0212 200.698 37.0804 199.421 38.1994C198.328 39.1706 197.419 39.6558 196.696 39.6558C196.382 39.6558 196.12 39.5422 195.913 39.3167C195.707 39.0904 195.602 38.8068 195.602 38.4651C195.602 37.7091 195.866 36.919 196.394 36.0947C196.921 35.2703 197.615 34.5596 198.477 33.9643C198.952 33.6388 199.47 33.3723 200.03 33.163C200.591 32.9529 201.067 32.8478 201.459 32.8478C201.702 32.8478 201.824 32.9555 201.824 33.1699C201.824 33.2536 201.788 33.3885 201.716 33.5756Z" fill="#879DA5"/>
<path fill-rule="evenodd" clip-rule="evenodd" d="M205.849 32.9883L205.773 33.2454H204.432L202.179 39.5973C201.963 39.5973 201.819 39.6229 201.747 39.6716C201.676 39.722 201.595 39.8536 201.508 40.0688C201.049 41.1443 200.663 41.9216 200.347 42.4025C199.983 42.9748 199.564 43.4335 199.093 43.7752C198.62 44.116 198.177 44.2877 197.763 44.2877C197.537 44.2877 197.347 44.2297 197.196 44.1135C197.044 43.9982 196.968 43.8521 196.968 43.6761C196.968 43.6198 196.981 43.5412 197.009 43.4352C197.307 43.507 197.595 43.5429 197.871 43.5429C198.838 43.5429 199.603 43.0893 200.169 42.183C200.735 41.275 201.571 39.1625 202.676 35.8422L203.446 33.5265L203.537 33.2454H202.617L202.709 33.0131H202.808L203.04 32.9969C203.432 32.9969 203.753 32.7158 204.001 32.1529C204.327 31.408 204.695 30.8127 205.107 30.3668C205.519 29.92 206.094 29.4835 206.834 29.059C207.641 28.602 208.309 28.3731 208.839 28.3731C209.219 28.3731 209.405 28.4551 209.395 28.6216C209.389 28.6874 209.336 28.8668 209.237 29.1589L208.847 30.3087H208.582C208.686 29.9721 208.74 29.7159 208.74 29.539C208.74 29.258 208.483 29.1179 207.97 29.1179C207.218 29.1179 206.59 29.3921 206.084 29.9405C205.579 30.4889 205.083 31.4337 204.597 32.7739L204.523 32.9883H205.849Z" fill="#879DA5"/>
<path fill-rule="evenodd" clip-rule="evenodd" d="M138.119 46.3987H138.403C138.593 48.1959 138.71 49.297 138.755 49.7027C138.9 51.0302 139.02 52.062 139.115 52.7975C139.209 53.5338 139.338 54.4888 139.501 55.6625L138.864 55.6078L138.228 55.648C138.145 54.7468 138.071 53.8866 138.003 53.0657C137.936 52.2457 137.859 51.4342 137.774 50.6312C137.688 49.8291 137.608 49.1757 137.536 48.67C136.986 49.6617 136.507 50.5279 136.101 51.2668C135.631 52.1321 135.238 52.8812 134.923 53.5116C134.579 54.2061 134.267 54.869 133.988 55.4994H133.839L133.094 53.9712C132.768 53.2955 132.479 52.7121 132.227 52.2201C131.974 51.7289 131.662 51.1318 131.293 50.4288C130.976 49.842 130.665 49.2568 130.358 48.67C130.204 49.9598 130.055 51.2616 129.911 52.578C129.766 53.8943 129.694 54.9185 129.694 55.648L129.221 55.6078L128.732 55.648C128.922 54.4769 129.17 52.8112 129.477 50.6517C129.784 48.4923 129.97 47.0743 130.033 46.3987H130.385C130.855 47.3178 131.238 48.0712 131.537 48.6572C131.898 49.3508 132.326 50.1495 132.823 51.0498C133.365 52.0338 133.829 52.8445 134.218 53.4851C135.518 51.1224 136.818 48.7605 138.119 46.3987Z" fill="#879DA5"/>
<path fill-rule="evenodd" clip-rule="evenodd" d="M145.94 51.4288L144.444 47.9804L142.963 51.4288H145.94ZM144.93 46.1951L148.994 55.6622L148.29 55.6084L147.572 55.6477C147.247 54.72 146.972 53.9718 146.746 53.4037C146.601 53.0432 146.403 52.5743 146.15 51.9968H142.71C142.186 53.3038 141.892 54.0478 141.829 54.228C141.694 54.5893 141.54 55.0626 141.369 55.6477L140.868 55.6084L140.394 55.6477L144.619 46.1951H144.93Z" fill="#879DA5"/>
<path fill-rule="evenodd" clip-rule="evenodd" d="M158.421 46.3987V55.6625H158.014L157.303 54.8297L151.459 48.3591H151.323V55.648L150.944 55.6078L150.565 55.6625V46.3987L151.096 46.3952L157.52 53.369L157.662 53.363V46.3987L158.042 46.4388L158.421 46.3987Z" fill="#879DA5"/>
<path fill-rule="evenodd" clip-rule="evenodd" d="M165.511 51.4288L164.016 47.9804L162.534 51.4288H165.511ZM164.502 46.1951L168.565 55.6622L167.861 55.6084L167.143 55.6477C166.818 54.72 166.543 53.9718 166.317 53.4037C166.172 53.0432 165.974 52.5743 165.722 51.9968H162.282C161.757 53.3038 161.464 54.0478 161.4 54.228C161.265 54.5893 161.111 55.0626 160.94 55.6477L160.439 55.6084L159.965 55.6477L164.19 46.1951H164.502Z" fill="#879DA5"/>
<path fill-rule="evenodd" clip-rule="evenodd" d="M178.074 48.0212H177.925C177.556 47.5975 177.101 47.2729 176.564 47.0474C176.026 46.8228 175.465 46.7092 174.878 46.7092C173.695 46.7092 172.748 47.0807 172.04 47.8239C171.331 48.5662 170.977 49.6075 170.977 50.9494C170.977 52.317 171.322 53.3814 172.013 54.1424C172.704 54.9035 173.707 55.2837 175.027 55.2837C175.407 55.2837 175.778 55.2452 176.144 55.1683C176.51 55.0923 176.842 54.9787 177.14 54.825V51.3612L177.735 51.4022L178.332 51.3612V55.1769C177.13 55.5903 175.903 55.7979 174.648 55.7979C173.003 55.7979 171.745 55.3426 170.869 54.4337C170.056 53.5872 169.65 52.4486 169.65 51.0169C169.65 49.4862 170.15 48.2886 171.153 47.425C172.11 46.6058 173.37 46.1949 174.932 46.1949C175.816 46.1949 176.607 46.2991 177.302 46.5067C177.727 46.6331 178.088 46.7912 178.385 46.9799C178.35 47.079 178.302 47.2277 178.243 47.4267C178.184 47.6249 178.128 47.823 178.074 48.0212Z" fill="#879DA5"/>
<path fill-rule="evenodd" clip-rule="evenodd" d="M181.717 47.0343V50.429H183.817C183.988 50.429 184.217 50.4196 184.501 50.4008C184.785 50.3837 184.959 50.3743 185.022 50.3743L184.981 50.7254L185.022 51.1046C184.861 51.1046 184.634 51.091 184.346 51.0645C184.056 51.0371 183.88 51.0235 183.817 51.0235H181.717V54.9725C182.007 54.9725 182.479 54.9631 183.133 54.9451C183.788 54.9272 184.133 54.9178 184.169 54.9178C184.422 54.9178 184.607 54.9118 184.725 54.8982C184.842 54.8836 185.072 54.8503 185.415 54.7965L185.375 55.2022L185.415 55.608H180.526V46.3988H185.335L185.294 46.7875L185.335 47.183C185.063 47.1283 184.842 47.0899 184.671 47.0677C184.499 47.0454 184.314 47.0343 184.115 47.0343H182.761H181.717Z" fill="#879DA5"/>
<path fill-rule="evenodd" clip-rule="evenodd" d="M196.073 46.3987H196.357C196.547 48.1959 196.665 49.297 196.71 49.7027C196.854 51.0302 196.974 52.062 197.069 52.7975C197.163 53.5338 197.292 54.4888 197.455 55.6625L196.819 55.6078L196.182 55.648C196.1 54.7468 196.025 53.8866 195.958 53.0657C195.89 52.2457 195.813 51.4342 195.729 50.6312C195.642 49.8291 195.563 49.1757 195.491 48.67C194.941 49.6617 194.462 50.5279 194.055 51.2668C193.586 52.1321 193.193 52.8812 192.877 53.5116C192.533 54.2061 192.222 54.869 191.942 55.4994H191.793L191.048 53.9712C190.723 53.2955 190.434 52.7121 190.181 52.2201C189.928 51.7289 189.617 51.1318 189.247 50.4288C188.931 49.842 188.619 49.2568 188.313 48.67C188.159 49.9598 188.009 51.2616 187.866 52.578C187.721 53.8943 187.648 54.9185 187.648 55.648L187.175 55.6078L186.687 55.648C186.877 54.4769 187.125 52.8112 187.432 50.6517C187.739 48.4923 187.925 47.0743 187.988 46.3987H188.34C188.809 47.3178 189.192 48.0712 189.491 48.6572C189.852 49.3508 190.281 50.1495 190.778 51.0498C191.319 52.0338 191.784 52.8445 192.172 53.4851C193.473 51.1224 194.773 48.7605 196.073 46.3987Z" fill="#879DA5"/>
<path fill-rule="evenodd" clip-rule="evenodd" d="M200.529 47.0343V50.429H202.628C202.8 50.429 203.029 50.4196 203.313 50.4008C203.597 50.3837 203.771 50.3743 203.834 50.3743L203.793 50.7254L203.834 51.1046C203.672 51.1046 203.446 51.091 203.157 51.0645C202.868 51.0371 202.692 51.0235 202.628 51.0235H200.529V54.9725C200.818 54.9725 201.29 54.9631 201.945 54.9451C202.599 54.9272 202.944 54.9178 202.981 54.9178C203.233 54.9178 203.419 54.9118 203.536 54.8982C203.653 54.8836 203.884 54.8503 204.227 54.7965L204.186 55.2022L204.227 55.608H199.337V46.3988H204.146L204.105 46.7875L204.146 47.183C203.875 47.1283 203.653 47.0899 203.482 47.0677C203.31 47.0454 203.126 47.0343 202.927 47.0343H201.573H200.529Z" fill="#879DA5"/>
<path fill-rule="evenodd" clip-rule="evenodd" d="M214.115 46.3987V55.6625H213.708L212.997 54.8297L207.153 48.3591H207.018V55.648L206.639 55.6078L206.259 55.6625V46.3987L206.79 46.3952L213.214 53.369L213.356 53.363V46.3987L213.736 46.4388L214.115 46.3987Z" fill="#879DA5"/>
<path fill-rule="evenodd" clip-rule="evenodd" d="M219.87 47.0477V55.6623L219.275 55.635L218.678 55.676V47.0477C217.974 47.0477 217.473 47.0571 217.175 47.0742C216.877 47.0929 216.39 47.1374 215.712 47.2091L215.753 46.8042L215.712 46.3985H222.701L222.661 46.8042L222.701 47.2091C222.367 47.1732 221.945 47.1374 221.435 47.1015C220.924 47.0656 220.403 47.0477 219.87 47.0477Z" fill="#879DA5"/>
<path fill-rule="evenodd" clip-rule="evenodd" d="M132.457 66.0446C132.881 65.7387 133.201 65.4449 133.419 65.1656C133.698 64.7957 133.838 64.3942 133.838 63.962C133.838 63.6374 133.739 63.3666 133.54 63.1505C133.342 62.9335 133.08 62.8251 132.755 62.8251C132.384 62.8251 132.1 62.9472 131.902 63.1907C131.703 63.4341 131.603 63.7365 131.603 64.097C131.603 64.331 131.664 64.6027 131.786 64.9085C131.908 65.2151 132.131 65.5935 132.457 66.0446ZM131.793 66.8962L131.685 66.9637C131.215 67.2618 130.868 67.5591 130.642 67.8563C130.353 68.2347 130.208 68.6678 130.208 69.1547C130.208 69.7228 130.4 70.1934 130.784 70.5684C131.168 70.9417 131.639 71.1288 132.2 71.1288C132.561 71.1288 132.931 71.0391 133.31 70.8589C133.689 70.6786 134.032 70.4352 134.339 70.1285C133.978 69.6869 133.545 69.1479 133.04 68.5123C132.533 67.8768 132.118 67.3387 131.793 66.8962ZM135.368 69.6151L137.062 71.5619C136.826 71.5431 136.655 71.5303 136.547 71.5217C136.439 71.5123 136.334 71.508 136.236 71.508L135.464 71.5482C135.238 71.2236 135.102 71.0305 135.057 70.9673C134.948 70.8136 134.8 70.6291 134.61 70.4121C133.816 71.2877 132.84 71.7242 131.685 71.7242C130.935 71.7242 130.319 71.5192 129.837 71.1091C129.352 70.6983 129.111 70.1516 129.111 69.4656C129.111 68.8617 129.346 68.3031 129.815 67.7888C130.204 67.3651 130.759 66.9731 131.481 66.6126L131.563 66.5716C131.256 66.112 131.052 65.7823 130.953 65.585C130.755 65.1878 130.655 64.8145 130.655 64.4617C130.655 63.8578 130.847 63.3734 131.23 63.0078C131.615 62.644 132.118 62.4612 132.741 62.4612C133.265 62.4612 133.693 62.5842 134.028 62.8327C134.362 63.0805 134.529 63.4298 134.529 63.8809C134.529 64.3857 134.33 64.8632 133.934 65.3142C133.671 65.6115 133.256 65.9497 132.687 66.3281C133.237 67.0312 133.793 67.735 134.353 68.438L135.071 69.2495C135.324 68.8873 135.601 68.4491 135.903 67.9383C136.206 67.4258 136.466 66.9705 136.683 66.5716C136.736 66.663 136.807 66.7553 136.893 66.8501C136.978 66.9457 137.079 67.038 137.198 67.1294C136.583 68.0707 135.973 68.8993 135.368 69.6151Z" fill="#879DA5"/>
<path fill-rule="evenodd" clip-rule="evenodd" d="M146.109 62.9747V71.5894L145.513 71.562L144.917 71.603V62.9747C144.213 62.9747 143.712 62.9841 143.414 63.0012C143.115 63.02 142.628 63.0644 141.951 63.1362L141.992 62.7313L141.951 62.3255H148.94L148.899 62.7313L148.94 63.1362C148.605 63.1003 148.183 63.0644 147.673 63.0285C147.163 62.9926 146.642 62.9747 146.109 62.9747Z" fill="#879DA5"/>
<path fill-rule="evenodd" clip-rule="evenodd" d="M151.607 62.9614V66.356H153.707C153.878 66.356 154.107 66.3466 154.391 66.3279C154.675 66.3108 154.849 66.3014 154.912 66.3014L154.871 66.6525L154.912 67.0317C154.751 67.0317 154.524 67.0181 154.236 66.9916C153.946 66.9642 153.77 66.9506 153.707 66.9506H151.607V70.8996C151.897 70.8996 152.369 70.8902 153.023 70.8722C153.678 70.8543 154.022 70.8449 154.059 70.8449C154.312 70.8449 154.497 70.8389 154.615 70.8252C154.732 70.8107 154.962 70.7774 155.305 70.7236L155.265 71.1293L155.305 71.5351H150.416V62.3259H155.224L155.183 62.7146L155.224 63.1101C154.953 63.0554 154.732 63.017 154.561 62.9948C154.389 62.9725 154.204 62.9614 154.005 62.9614H152.651H151.607Z" fill="#879DA5"/>
<path fill-rule="evenodd" clip-rule="evenodd" d="M164.326 70.1154L164.258 70.9593C163.861 71.2284 163.4 71.4223 162.878 71.5436C162.353 71.6632 161.816 71.7247 161.266 71.7247C159.784 71.7247 158.62 71.2873 157.771 70.4143C156.922 69.5414 156.498 68.366 156.498 66.8899C156.498 65.413 156.99 64.2384 157.974 63.3654C158.913 62.5369 160.123 62.1226 161.604 62.1226C162.083 62.1226 162.572 62.1764 163.073 62.2849C163.575 62.3934 164.056 62.5471 164.516 62.7444C164.462 62.8794 164.408 63.0494 164.353 63.2518C164.299 63.4543 164.258 63.6328 164.232 63.7857L164.136 63.7994C164.037 63.673 163.861 63.5201 163.608 63.339C162.949 62.8717 162.263 62.636 161.55 62.636C160.357 62.636 159.427 63.0639 158.759 63.919C158.137 64.7117 157.825 65.7196 157.825 66.9437C157.825 68.231 158.159 69.2612 158.827 70.0359C159.496 70.8098 160.372 71.1968 161.456 71.1968C161.942 71.1968 162.444 71.1011 162.958 70.9098C163.473 70.7184 163.929 70.4536 164.326 70.1154Z" fill="#879DA5"/>
<path fill-rule="evenodd" clip-rule="evenodd" d="M173.13 66.2064V62.3257L173.726 62.3659L174.322 62.3257V71.5896L173.726 71.5349L173.13 71.575V66.9239C172.687 66.9239 172.33 66.9188 172.06 66.9094C170.976 66.8735 170.385 66.8564 170.286 66.8564C169.853 66.8564 169.298 66.8667 168.62 66.8897C167.943 66.9119 167.545 66.9239 167.428 66.9239V71.5896L166.832 71.5349L166.236 71.575V62.3257L166.832 62.3659L167.428 62.3257V66.2064C167.879 66.2064 168.445 66.2183 169.127 66.2405C169.809 66.2627 170.195 66.2738 170.286 66.2738C170.719 66.2738 171.072 66.2696 171.342 66.2602C172.426 66.2243 173.022 66.2064 173.13 66.2064Z" fill="#879DA5"/>
<path fill-rule="evenodd" clip-rule="evenodd" d="M184.765 62.3258V71.5897H184.357L183.646 70.7568L177.802 64.2862H177.667V71.5752L177.288 71.535L176.908 71.5897V62.3258L177.44 62.3224L183.864 69.2961L184.006 69.2902V62.3258L184.386 62.366L184.765 62.3258Z" fill="#879DA5"/>
<path fill-rule="evenodd" clip-rule="evenodd" d="M195.479 66.8496C195.479 66.2371 195.42 65.6947 195.302 65.2223C195.184 64.7499 194.959 64.3023 194.625 63.8786C194.29 63.4558 193.878 63.1312 193.386 62.9066C192.894 62.6811 192.367 62.5683 191.808 62.5683C190.624 62.5683 189.693 62.9809 189.011 63.8043C188.329 64.6278 187.989 65.7289 187.989 67.1058C187.989 68.429 188.35 69.4686 189.072 70.2245C189.749 70.9267 190.62 71.2786 191.685 71.2786C192.959 71.2786 193.948 70.7294 194.652 69.6309C195.203 68.7758 195.479 67.849 195.479 66.8496ZM191.646 71.7245C190.138 71.7245 188.93 71.2897 188.022 70.4219C187.115 69.5523 186.661 68.394 186.661 66.9435C186.661 65.4939 187.144 64.3194 188.111 63.4182C189.041 62.5546 190.227 62.1224 191.672 62.1224C193.081 62.1224 194.254 62.488 195.194 63.2166C196.268 64.0538 196.805 65.2291 196.805 66.7411C196.805 68.2359 196.326 69.4395 195.37 70.3544C194.413 71.2675 193.171 71.7245 191.646 71.7245Z" fill="#879DA5"/>
<path fill-rule="evenodd" clip-rule="evenodd" d="M199.772 62.3258V70.8995C200.061 70.8995 200.533 70.8901 201.188 70.8721C201.842 70.8542 202.187 70.8456 202.224 70.8456C202.44 70.8456 202.707 70.8268 203.023 70.791C203.24 70.7551 203.402 70.7329 203.51 70.7235L203.469 71.1292L203.51 71.535H198.58V62.3258L199.176 62.3659L199.772 62.3258Z" fill="#879DA5"/>
<path fill-rule="evenodd" clip-rule="evenodd" d="M213.533 66.8496C213.533 66.2371 213.473 65.6947 213.356 65.2223C213.238 64.7499 213.013 64.3023 212.679 63.8786C212.344 63.4558 211.932 63.1312 211.44 62.9066C210.948 62.6811 210.421 62.5683 209.862 62.5683C208.678 62.5683 207.747 62.9809 207.065 63.8043C206.383 64.6278 206.042 65.7289 206.042 67.1058C206.042 68.429 206.404 69.4686 207.126 70.2245C207.803 70.9267 208.674 71.2786 209.739 71.2786C211.013 71.2786 212.002 70.7294 212.706 69.6309C213.257 68.7758 213.533 67.849 213.533 66.8496ZM209.7 71.7245C208.192 71.7245 206.984 71.2897 206.076 70.4219C205.169 69.5523 204.715 68.394 204.715 66.9435C204.715 65.4939 205.198 64.3194 206.165 63.4182C207.095 62.5546 208.281 62.1224 209.726 62.1224C211.135 62.1224 212.308 62.488 213.248 63.2166C214.322 64.0538 214.859 65.2291 214.859 66.7411C214.859 68.2359 214.38 69.4395 213.424 70.3544C212.467 71.2675 211.225 71.7245 209.7 71.7245Z" fill="#879DA5"/>
<path fill-rule="evenodd" clip-rule="evenodd" d="M224.72 63.9483H224.571C224.201 63.5246 223.747 63.2 223.21 62.9745C222.672 62.7498 222.11 62.6362 221.524 62.6362C220.34 62.6362 219.394 63.0078 218.686 63.7509C217.977 64.4932 217.622 65.5345 217.622 66.8765C217.622 68.2441 217.968 69.3084 218.658 70.0695C219.35 70.8306 220.353 71.2107 221.672 71.2107C222.052 71.2107 222.424 71.1723 222.79 71.0954C223.156 71.0194 223.488 70.9058 223.786 70.752V67.2882L224.381 67.3292L224.977 67.2882V71.1039C223.776 71.5174 222.549 71.7249 221.293 71.7249C219.649 71.7249 218.391 71.2697 217.515 70.3608C216.702 69.5143 216.296 68.3756 216.296 66.944C216.296 65.4132 216.796 64.2156 217.799 63.352C218.756 62.5328 220.015 62.122 221.578 62.122C222.462 62.122 223.253 62.2262 223.948 62.4338C224.372 62.5602 224.734 62.7182 225.031 62.907C224.995 63.0061 224.948 63.1547 224.889 63.3537C224.83 63.5519 224.774 63.7501 224.72 63.9483Z" fill="#879DA5"/>
<path fill-rule="evenodd" clip-rule="evenodd" d="M230.746 67.431V71.5892L230.15 71.5354L229.554 71.5756V67.6804L226.236 62.3254L226.994 62.3655L227.739 62.3254C228.037 62.9114 228.483 63.7229 229.074 64.7599C229.664 65.7969 230.078 66.4948 230.313 66.8561C230.457 66.6844 230.719 66.2701 231.098 65.6115C231.369 65.1426 231.722 64.507 232.154 63.7049C232.399 63.2454 232.647 62.7858 232.9 62.3254L233.428 62.3655L233.956 62.3254C233.622 62.7499 233.301 63.2018 232.995 63.6793L231.505 66.0771C231.324 66.3564 231.182 66.5879 231.078 66.7681C230.975 66.9483 230.864 67.1696 230.746 67.431Z" fill="#879DA5"/>
<path fill-rule="evenodd" clip-rule="evenodd" d="M152.009 12.5775C153.197 12.5775 154.245 12.6066 155.157 12.6655C156.068 12.7236 156.949 12.8116 157.802 12.9278C157.786 12.7945 157.761 12.6108 157.728 12.3768C157.694 12.1436 157.677 11.9685 157.677 11.8515C157.677 11.7182 157.69 11.5508 157.715 11.35C157.74 11.1502 157.769 10.958 157.802 10.7743H148.248V18.3955V20.6147V24.6124H157.802C157.786 24.4792 157.761 24.2955 157.728 24.0615C157.694 23.8283 157.677 23.6531 157.677 23.5361C157.677 23.4029 157.69 23.2354 157.715 23.0356C157.74 22.8348 157.769 22.6435 157.802 22.459C156.949 22.576 156.068 22.664 155.157 22.7221C154.245 22.781 153.197 22.81 152.009 22.81V20.6147V19.664V18.3955V18.393H153.892C154.36 18.393 154.891 18.4177 155.484 18.4681C156.078 18.5185 156.576 18.5681 156.977 18.6185C156.96 18.4852 156.935 18.3016 156.902 18.0675C156.869 17.8334 156.852 17.6583 156.852 17.5413C156.852 17.4081 156.864 17.2406 156.889 17.0407C156.914 16.84 156.944 16.6487 156.977 16.465C156.291 16.565 155.769 16.6273 155.41 16.6529C155.05 16.6777 154.544 16.6897 153.892 16.6897H152.009V16.1233V12.5775Z" fill="#0C2D46"/>
<path fill-rule="evenodd" clip-rule="evenodd" d="M148.035 9.50723H158.016V7.71682H148.035V9.50723Z" fill="#ECA22D"/>
<path fill-rule="evenodd" clip-rule="evenodd" d="M68.1456 22.405C63.8047 22.405 59.5468 24.0724 55.958 28.2401C54.6217 24.1553 51.5332 22.405 47.8597 22.405C43.9782 22.405 40.1754 23.8187 36.8304 27.1646V32.5487C38.6774 30.965 40.7769 29.9903 42.4331 29.9903C44.6874 29.9903 46.0237 31.1572 46.0237 34.8251V71.4167H56.793V33.7412V32.8237C58.6289 31.0735 60.9661 29.9903 62.7191 29.9903C64.8895 29.9903 66.2258 31.1572 66.2258 34.8251V71.4167H77.0781V33.7412C77.0781 26.1558 73.3215 22.405 68.1456 22.405Z" fill="#0C2D46"/>
<path fill-rule="evenodd" clip-rule="evenodd" d="M18.2007 71.5343C12.0547 71.5138 6.86602 69.2971 3.21982 64.1736C-0.635983 58.7562 -1.05946 52.8656 2.11535 47.0109C5.53399 40.7069 11.0863 37.8701 18.1562 37.9077C11.4926 49.1499 11.5234 60.2084 18.2007 71.5343Z" fill="#0C2D46"/>
<path fill-rule="evenodd" clip-rule="evenodd" d="M84.0094 30.6747H95.446V30.6568H102.709V23.238H95.446V15.9713L84.0094 9.37854V23.238H79.1681V30.6568H84.0094V30.6747Z" fill="#0C2D46"/>
<path fill-rule="evenodd" clip-rule="evenodd" d="M99.7875 62.9982C96.8659 62.9982 95.4466 61.6639 95.4466 58.4137V36.904H84.0101V59.414C84.0101 67.2496 86.7648 71.9998 96.0309 71.9998C98.8695 71.9998 101.374 71.7495 103.294 71.4164V62.6642C102.209 62.9145 100.956 62.9982 99.7875 62.9982Z" fill="#0C2D46"/>
</svg>
