<svg width="40" height="40" viewBox="0 0 40 40" fill="none" xmlns="http://www.w3.org/2000/svg">
<path d="M39.2873 20.9655L30.6248 16.978V5.55306C30.6208 5.31337 30.548 5.07987 30.415 4.88041C30.2821 4.68094 30.0945 4.52392 29.8748 4.42807L20.4999 0.115594C20.3353 0.0394432 20.1562 0 19.9749 0C19.7936 0 19.6144 0.0394432 19.4499 0.115594L10.0749 4.42807C9.85797 4.52848 9.67434 4.68901 9.54584 4.89063C9.41734 5.09224 9.34935 5.32648 9.34994 5.56556V16.9905L0.724999 20.9655C0.508026 21.0659 0.3244 21.2264 0.195899 21.428C0.0673982 21.6296 -0.000587777 21.8639 3.8284e-06 22.103V34.3279C-0.000587777 34.567 0.0673982 34.8012 0.195899 35.0028C0.3244 35.2044 0.508026 35.365 0.724999 35.4654L10.0999 39.7778C10.2645 39.854 10.4436 39.8934 10.6249 39.8934C10.8062 39.8934 10.9854 39.854 11.1499 39.7778L19.9999 35.7029L28.8498 39.7778C29.0144 39.854 29.1935 39.8934 29.3748 39.8934C29.5561 39.8934 29.7353 39.854 29.8998 39.7778L39.2748 35.4654C39.4917 35.365 39.6754 35.2044 39.8039 35.0028C39.9324 34.8012 40.0003 34.567 39.9997 34.3279V22.103C40.0015 21.8652 39.9353 21.6319 39.8091 21.4305C39.6829 21.229 39.5019 21.0677 39.2873 20.9655ZM29.3873 25.0154L22.9999 22.103L29.3873 19.1655L35.7748 22.103L29.3873 25.0154ZM28.1373 16.9655L20.0874 20.7155V11.103C20.238 11.0964 20.3863 11.0625 20.5249 11.003L28.1248 7.51555V16.9905L28.1373 16.9655ZM19.9999 2.61558L26.3873 5.55306L19.9999 8.49054L13.6249 5.55306L19.9999 2.61558ZM10.6249 19.153L17.0124 22.0905L10.6249 25.0154L4.23748 22.103L10.6249 19.153ZM18.7499 33.5154L10.6249 37.2654V27.6529C10.7994 27.6425 10.9697 27.5957 11.1249 27.5154L18.7249 24.0154L18.7499 33.5154ZM37.4998 33.5154L29.4248 37.2654V27.6529C29.5822 27.636 29.7349 27.5893 29.8748 27.5154L37.4748 24.0154L37.4998 33.5154Z" fill="#ECA22D"/>
</svg>
