<svg width="6" height="4" viewBox="0 0 6 4" fill="none" xmlns="http://www.w3.org/2000/svg">
<path d="M0.300181 7.15256e-07H5.70033C5.75501 0.000153303 5.8086 0.0135808 5.85534 0.0388374C5.90208 0.0640941 5.9402 0.100223 5.9656 0.143337C5.991 0.18645 6.00271 0.234915 5.99947 0.283515C5.99624 0.332114 5.97818 0.379008 5.94724 0.419148L3.24716 3.89201C3.13526 4.036 2.86585 4.036 2.75365 3.89201L0.0535736 0.419148C0.0223202 0.379092 0.00399248 0.332175 0.000581694 0.283494C-0.00282909 0.234814 0.00880754 0.186232 0.0342273 0.143027C0.059647 0.0998223 0.0978776 0.0636466 0.144765 0.0384307C0.191653 0.0132151 0.245405 -7.62939e-05 0.300181 7.15256e-07Z" fill="black"/>
</svg>
