<svg width="30" height="38" viewBox="0 0 30 38" fill="none" xmlns="http://www.w3.org/2000/svg">
<path d="M7.96094 0.202266C9.03616 -0.111156 10.19 -0.0590858 11.2303 0.349808C12.2707 0.758701 13.1348 1.49975 13.6788 2.44959L13.8606 2.80356L15.4873 6.29809C15.9809 7.35876 16.1412 8.53634 15.9481 9.68437C15.755 10.8324 15.2171 11.9002 14.4012 12.755L14.0744 13.0686L11.5116 15.38C11.0496 15.8029 11.3961 17.4397 13.067 20.2382C14.5707 22.7563 15.7944 23.9323 16.3964 23.9964H16.5021L16.6323 23.9726L21.6695 22.4831C22.3465 22.2824 23.069 22.2745 23.7505 22.4602C24.432 22.646 25.0438 23.0177 25.5126 23.5308L25.7362 23.804L29.0706 28.2701C29.724 29.1455 30.0497 30.21 29.9939 31.2882C29.938 32.3664 29.5041 33.3941 28.7634 34.202L28.4636 34.5014L27.1318 35.7224C25.9359 36.8174 24.4399 37.5573 22.8217 37.8542C21.2035 38.1511 19.5311 37.9925 18.0034 37.3972C13.2488 35.5442 8.92907 31.3109 5.00495 24.74C1.07347 18.1524 -0.560557 12.4105 0.169225 7.49302C0.390061 6.00652 1.02319 4.6056 2.00138 3.43903C2.97957 2.27246 4.2663 1.3838 5.72491 0.867437L6.19914 0.715398L7.96094 0.202266Z" fill="#ECA22D"/>
</svg>
