<svg width="112" height="69" viewBox="0 0 112 69" fill="none" xmlns="http://www.w3.org/2000/svg">
<path fill-rule="evenodd" clip-rule="evenodd" d="M21.4372 6.24722C21.4757 2.79778 24.3366 0.00573337 27.838 8.47623e-06C31.4546 -0.00569942 34.3941 2.8721 34.3925 6.41708C34.3916 9.87631 31.3025 12.9117 27.8052 12.8906C24.2965 12.8693 21.3972 9.84528 21.4372 6.24722Z" fill="#ECA22D"/>
<path fill-rule="evenodd" clip-rule="evenodd" d="M34.386 62.5739H34.3885C34.3811 46.2323 34.3738 29.8916 34.3672 13.5517C29.5156 16.1853 24.9461 19.3138 19.6184 21.4289C19.6184 21.4289 22.2937 23.1847 22.3959 28.9174C22.575 29.4956 22.4188 30.1219 22.4196 30.7123C22.4213 31.5829 22.4221 32.4542 22.4237 33.3255H22.4025V57.2527C22.3959 58.2988 22.4 59.3449 22.391 60.3902C22.3902 60.5437 22.3959 60.6793 22.4025 60.8157V63.6886C22.3967 64.4954 22.3975 65.3006 22.391 66.1066C22.3771 67.8199 22.7476 68.4757 24.605 68.3785C27.8594 68.2094 31.1268 68.3058 34.3885 68.2903C34.3877 66.3843 34.3869 64.4791 34.386 62.5739Z" fill="#0C2D46"/>
<path fill-rule="evenodd" clip-rule="evenodd" d="M111.126 68.8326H112V6.79748H111.126V68.8326Z" fill="#ECA22D"/>
<path fill-rule="evenodd" clip-rule="evenodd" d="M65.1479 21.4196C60.998 21.4196 56.9274 23.0137 53.4964 26.998C52.2188 23.0929 49.2663 21.4196 45.7543 21.4196C42.0436 21.4196 38.4081 22.7711 35.2102 25.9699V31.1171C36.976 29.603 38.9831 28.6713 40.5665 28.6713C42.7216 28.6713 43.9991 29.7868 43.9991 33.2934V68.2753H54.2946V32.2571V31.38C56.0498 29.7068 58.2842 28.6713 59.9601 28.6713C62.035 28.6713 63.3125 29.7868 63.3125 33.2934V68.2753H73.6874V32.2571C73.6874 25.0054 70.096 21.4196 65.1479 21.4196Z" fill="#0C2D46"/>
<path fill-rule="evenodd" clip-rule="evenodd" d="M17.4001 68.3875C11.5244 68.3679 6.56398 66.2488 3.07818 61.3507C-0.608006 56.1716 -1.01286 50.5401 2.0223 44.943C5.29054 38.9163 10.5986 36.2042 17.3575 36.2402C10.9871 46.9878 11.0165 57.5599 17.4001 68.3875Z" fill="#0C2D46"/>
<path fill-rule="evenodd" clip-rule="evenodd" d="M80.3139 29.3252H91.2473V29.308H98.1911V22.2156H91.2473V15.2686L80.3139 8.96584V22.2156H75.6855V29.308H80.3139V29.3252Z" fill="#0C2D46"/>
<path fill-rule="evenodd" clip-rule="evenodd" d="M95.3975 60.2268C92.6044 60.2268 91.2475 58.9512 91.2475 55.844V35.2805H80.3141V56.8002C80.3141 64.2912 82.9477 68.8324 91.8061 68.8324C94.5199 68.8324 96.9138 68.5932 98.7499 68.2747V59.9075C97.7121 60.1468 96.5147 60.2268 95.3975 60.2268Z" fill="#0C2D46"/>
</svg>
