<svg width="49" height="31" viewBox="0 0 49 31" fill="none" xmlns="http://www.w3.org/2000/svg">
<path fill-rule="evenodd" clip-rule="evenodd" d="M32.8455 1.84039C32.8455 1.35229 33.0258 0.884178 33.3466 0.539038C33.6674 0.193898 34.1026 0 34.5563 0H47.2892C47.7429 0 48.178 0.193898 48.4989 0.539038C48.8197 0.884178 48.9999 1.35229 48.9999 1.84039V15.4495C48.9999 15.9376 48.8197 16.4057 48.4989 16.7508C48.178 17.096 47.7429 17.2899 47.2892 17.2899C46.8354 17.2899 46.4003 17.096 46.0794 16.7508C45.7586 16.4057 45.5784 15.9376 45.5784 15.4495V6.26469L31.5818 21.2258C30.512 22.3693 29.5905 23.3558 28.7533 24.0404C27.8546 24.7717 26.86 25.3262 25.6306 25.3262C24.4034 25.3262 23.4065 24.7717 22.5078 24.038C21.6706 23.3558 20.7514 22.3693 19.6793 21.2258L19.0543 20.5559C17.8818 19.302 17.1222 18.4947 16.4881 17.9769C15.895 17.4911 15.6167 17.4371 15.432 17.4371C15.2495 17.4371 14.9712 17.4935 14.3781 17.9769C13.7463 18.4947 12.9867 19.302 11.8142 20.5584L2.87477 30.1333C2.5499 30.4578 2.12064 30.6339 1.67743 30.6246C1.23422 30.6153 0.811663 30.4213 0.498799 30.0835C0.185934 29.7456 0.00718463 29.2903 0.000211896 28.8135C-0.00676084 28.3367 0.158587 27.8756 0.461419 27.5273L9.47842 17.8641C10.5505 16.7206 11.4698 15.7317 12.3069 15.047C13.2057 14.3109 14.2025 13.7588 15.432 13.7563C16.6615 13.7563 17.6583 14.3109 18.557 15.0446C19.3942 15.7292 20.3157 16.7157 21.3855 17.8616L22.0128 18.5291C23.1853 19.783 23.9449 20.5903 24.5767 21.1056C25.1698 21.5915 25.4481 21.6454 25.6306 21.6454C25.813 21.6454 26.0913 21.5915 26.6844 21.1056C27.3185 20.5903 28.0758 19.783 29.2506 18.5291L43.1422 3.67833H34.5563C34.1026 3.67833 33.6674 3.48443 33.3466 3.13929C33.0258 2.79415 32.8455 2.32849 32.8455 1.84039Z" fill="#ECA22D"/>
</svg>
