<svg width="40" height="39" viewBox="0 0 40 39" fill="none" xmlns="http://www.w3.org/2000/svg">
<path d="M20.0001 0C31.0461 0 40.0002 8.60965 40.0002 19.2309C40.0002 29.8521 31.0461 38.4617 20.0001 38.4617C8.95404 38.4617 0 29.8521 0 19.2309C0 8.60965 8.95404 0 20.0001 0ZM20.0001 2.6827C15.4357 2.6827 11.0582 4.42616 7.83073 7.52954C4.60321 10.6329 2.79001 14.842 2.79001 19.2309C2.79001 23.6197 4.60321 27.8288 7.83073 30.9322C11.0582 34.0355 15.4357 35.779 20.0001 35.779C24.5645 35.779 28.9419 34.0355 32.1694 30.9322C35.397 27.8288 37.2102 23.6197 37.2102 19.2309C37.2102 14.842 35.397 10.6329 32.1694 7.52954C28.9419 4.42616 24.5645 2.6827 20.0001 2.6827ZM18.1401 10.7327C18.9101 10.7327 19.5341 11.3347 19.5341 12.0751V21.4674H29.3021C29.663 21.4805 30.0045 21.6276 30.2549 21.8777C30.5054 22.1278 30.6453 22.4615 30.6453 22.8088C30.6453 23.156 30.5054 23.4897 30.2549 23.7398C30.0045 23.9899 29.663 24.137 29.3021 24.1501H18.1401C17.7698 24.1501 17.4148 24.0087 17.153 23.757C16.8912 23.5052 16.7441 23.1638 16.7441 22.8078V12.077C16.7441 11.3347 17.3681 10.7327 18.1401 10.7327Z" fill="#ECA22D"/>
</svg>
