<svg width="42" height="40" viewBox="0 0 42 40" fill="none" xmlns="http://www.w3.org/2000/svg">
<path d="M32.121 39.9999C31.5615 39.9993 31.0149 39.8318 30.5512 39.5188L21.1075 33.1893C21.061 33.1571 21.0058 33.1399 20.9493 33.1399C20.8927 33.1399 20.8376 33.1571 20.791 33.1893L11.3473 39.5188C10.8731 39.8355 10.3138 40.0004 9.74363 39.9916C9.17348 39.9829 8.61948 39.8009 8.1552 39.4698C7.69091 39.1388 7.33832 38.6744 7.14423 38.1382C6.95014 37.602 6.92374 37.0195 7.06854 36.468L10.17 25.5305C10.1847 25.4755 10.1829 25.4174 10.1649 25.3634C10.1469 25.3094 10.1135 25.2619 10.0688 25.2267L1.13141 18.2009C0.660915 17.8504 0.311915 17.3614 0.133341 16.8025C-0.0452327 16.2437 -0.0444247 15.6429 0.135652 15.0846C0.315728 14.5262 0.666042 14.0382 1.13747 13.6889C1.60891 13.3397 2.17782 13.1468 2.76443 13.1372L14.1577 12.7068C14.2137 12.7029 14.2674 12.6829 14.3123 12.6493C14.3572 12.6156 14.3914 12.5696 14.4108 12.5169L18.3352 1.84526C18.533 1.30426 18.8922 0.837109 19.3643 0.507059C19.8364 0.177008 20.3986 0 20.9746 0C21.5506 0 22.1127 0.177008 22.5848 0.507059C23.0569 0.837109 23.4162 1.30426 23.614 1.84526L27.5383 12.5169C27.5577 12.5696 27.592 12.6156 27.6369 12.6493C27.6818 12.6829 27.7355 12.7029 27.7915 12.7068L39.1848 13.1372C39.7714 13.1468 40.3403 13.3397 40.8117 13.6889C41.2831 14.0382 41.6335 14.5262 41.8135 15.0846C41.9936 15.6429 41.9944 16.2437 41.8158 16.8025C41.6373 17.3614 41.2883 17.8504 40.8178 18.2009L31.8804 25.2267C31.8343 25.2607 31.7999 25.3082 31.7818 25.3626C31.7636 25.4169 31.7627 25.4756 31.7792 25.5305L34.8806 36.468C34.9895 36.8875 35.0003 37.3265 34.9122 37.7508C34.8241 38.1752 34.6395 38.5736 34.3726 38.9151C34.1058 39.2567 33.7638 39.5322 33.3734 39.7203C32.9829 39.9084 32.5544 40.004 32.121 39.9999ZM20.9556 30.6068C21.5162 30.6239 22.0587 30.8092 22.5127 31.1385L31.9564 37.468C32.0042 37.5044 32.0626 37.5243 32.1227 37.5248C32.1828 37.5253 32.2415 37.5063 32.2899 37.4707C32.3383 37.4351 32.3739 37.3848 32.3914 37.3272C32.4089 37.2697 32.4072 37.2081 32.3868 37.1516L29.2853 26.2141C29.1327 25.6775 29.1439 25.1076 29.3176 24.5775C29.4913 24.0474 29.8195 23.5814 30.2601 23.2392L39.1974 16.2134C39.2462 16.1791 39.2827 16.1301 39.3015 16.0736C39.3204 16.0171 39.3206 15.956 39.3022 15.8994C39.2838 15.8427 39.2477 15.7935 39.1992 15.7588C39.1507 15.7242 39.0924 15.706 39.0328 15.707L27.6396 15.2766C27.0818 15.2548 26.543 15.0674 26.0921 14.7383C25.6412 14.4091 25.2985 13.9531 25.1078 13.4284L21.1835 2.75672C21.1658 2.70005 21.1304 2.65053 21.0826 2.61536C21.0348 2.58019 20.977 2.56123 20.9176 2.56123C20.8583 2.56123 20.8005 2.58019 20.7526 2.61536C20.7048 2.65053 20.6695 2.70005 20.6518 2.75672L16.7654 13.4157C16.5747 13.9404 16.2321 14.3964 15.7811 14.7256C15.3302 15.0548 14.7915 15.2422 14.2336 15.2639L2.84039 15.6943C2.78082 15.6934 2.72251 15.7116 2.67403 15.7462C2.62555 15.7808 2.58945 15.8301 2.57103 15.8867C2.55262 15.9434 2.55286 16.0045 2.57172 16.061C2.59058 16.1175 2.62707 16.1665 2.67582 16.2007L11.6258 23.2392C12.065 23.5825 12.3922 24.0486 12.5658 24.5783C12.7393 25.1081 12.7515 25.6775 12.6006 26.2141L9.51175 37.1516C9.49332 37.2063 9.49323 37.2656 9.5115 37.3204C9.52978 37.3753 9.56541 37.4226 9.61302 37.4554C9.65888 37.4946 9.71724 37.5162 9.77759 37.5162C9.83794 37.5162 9.8963 37.4946 9.94216 37.4554L19.3859 31.1258C19.8474 30.8197 20.3891 30.6567 20.9429 30.6574L20.9556 30.6068Z" fill="#ECA22D"/>
</svg>
