<svg width="186" height="24" viewBox="0 0 186 24" fill="none" xmlns="http://www.w3.org/2000/svg">
<path d="M25.472 14.816C25.472 13.712 24.64 13.04 23.424 13.04H21.024V16.512H23.488C24.72 16.512 25.472 15.888 25.472 14.816ZM25.184 9.968C25.184 8.96 24.464 8.368 23.28 8.368H21.024V11.552H23.28C24.464 11.552 25.184 10.992 25.184 9.968ZM27.296 15.008C27.296 16.704 25.92 18 23.648 18H19.2V6.88H23.44C25.792 6.88 27.04 8.176 27.04 9.744C27.04 11.088 26.224 11.904 25.152 12.288C26.336 12.496 27.296 13.68 27.296 15.008ZM28.6701 13.552C28.6701 10.832 30.5101 9.04 32.8301 9.04C34.3181 9.04 35.3421 9.744 35.8861 10.464V9.184H37.7261V18H35.8861V16.688C35.3261 17.44 34.2701 18.144 32.7981 18.144C30.5101 18.144 28.6701 16.272 28.6701 13.552ZM35.8861 13.584C35.8861 11.696 34.5901 10.624 33.2141 10.624C31.8541 10.624 30.5421 11.648 30.5421 13.552C30.5421 15.456 31.8541 16.56 33.2141 16.56C34.5901 16.56 35.8861 15.488 35.8861 13.584ZM39.5139 13.584C39.5139 10.832 41.3059 9.04 43.8339 9.04C45.9939 9.04 47.4019 10.112 47.8979 11.968H45.9299C45.6259 11.12 44.9219 10.576 43.8339 10.576C42.3619 10.576 41.3859 11.664 41.3859 13.584C41.3859 15.52 42.3619 16.608 43.8339 16.608C44.9219 16.608 45.5939 16.128 45.9299 15.216H47.8979C47.4019 16.944 45.9939 18.144 43.8339 18.144C41.3059 18.144 39.5139 16.352 39.5139 13.584ZM49.7156 18V6.16H51.5396V13.04L54.7396 9.184H57.2676L53.2036 13.6L57.2676 18H54.8036L51.5396 14.208V18H49.7156ZM63.0193 15.552V10.672H61.9793V9.184H63.0193V6.992H64.8593V9.184H67.0033V10.672H64.8593V15.552C64.8593 16.208 65.1153 16.48 65.8833 16.48H67.0033V18H65.5633C63.9953 18 63.0193 17.344 63.0193 15.552ZM77.0844 13.584C77.0844 16.352 75.0364 18.144 72.5084 18.144C69.9964 18.144 68.0924 16.352 68.0924 13.584C68.0924 10.816 70.0764 9.04 72.5884 9.04C75.1004 9.04 77.0844 10.816 77.0844 13.584ZM69.9484 13.584C69.9484 15.584 71.1324 16.56 72.5084 16.56C73.8684 16.56 75.2124 15.584 75.2124 13.584C75.2124 11.584 73.9164 10.624 72.5564 10.624C71.1804 10.624 69.9484 11.584 69.9484 13.584ZM82.4358 13.552C82.4358 10.832 84.2758 9.04 86.5958 9.04C88.0838 9.04 89.1078 9.744 89.6518 10.464V9.184H91.4918V18H89.6518V16.688C89.0918 17.44 88.0358 18.144 86.5638 18.144C84.2758 18.144 82.4358 16.272 82.4358 13.552ZM89.6518 13.584C89.6518 11.696 88.3558 10.624 86.9798 10.624C85.6198 10.624 84.3078 11.648 84.3078 13.552C84.3078 15.456 85.6198 16.56 86.9798 16.56C88.3558 16.56 89.6518 15.488 89.6518 13.584ZM93.8875 18V6.16H95.7115V18H93.8875ZM98.1063 18V6.16H99.9303V18H98.1063ZM108.305 12H110.321C111.745 12 112.385 11.312 112.385 10.192C112.385 9.04 111.745 8.368 110.321 8.368H108.305V12ZM114.257 10.192C114.257 11.776 113.217 13.488 110.321 13.488H108.305V18H106.481V6.88H110.321C112.961 6.88 114.257 8.384 114.257 10.192ZM117.821 13.36V18H115.997V9.184H117.821V10.464C118.333 9.584 119.213 9.04 120.461 9.04V10.928H119.997C118.653 10.928 117.821 11.488 117.821 13.36ZM130.538 13.584C130.538 16.352 128.49 18.144 125.962 18.144C123.45 18.144 121.546 16.352 121.546 13.584C121.546 10.816 123.53 9.04 126.042 9.04C128.554 9.04 130.538 10.816 130.538 13.584ZM123.402 13.584C123.402 15.584 124.586 16.56 125.962 16.56C127.322 16.56 128.666 15.584 128.666 13.584C128.666 11.584 127.37 10.624 126.01 10.624C124.634 10.624 123.402 11.584 123.402 13.584ZM131.733 13.552C131.733 10.832 133.573 9.04 135.893 9.04C137.333 9.04 138.405 9.712 138.949 10.464V9.184H140.789V18.144C140.789 20.544 139.237 22.352 136.485 22.352C134.133 22.352 132.389 21.184 132.165 19.232H133.973C134.245 20.144 135.221 20.768 136.485 20.768C137.893 20.768 138.949 19.904 138.949 18.144V16.672C138.389 17.424 137.333 18.144 135.893 18.144C133.573 18.144 131.733 16.272 131.733 13.552ZM138.949 13.584C138.949 11.696 137.653 10.624 136.277 10.624C134.917 10.624 133.605 11.648 133.605 13.552C133.605 15.456 134.917 16.56 136.277 16.56C137.653 16.56 138.949 15.488 138.949 13.584ZM145.008 13.36V18H143.184V9.184H145.008V10.464C145.52 9.584 146.4 9.04 147.648 9.04V10.928H147.184C145.84 10.928 145.008 11.488 145.008 13.36ZM148.717 13.552C148.717 10.832 150.557 9.04 152.877 9.04C154.365 9.04 155.389 9.744 155.933 10.464V9.184H157.773V18H155.933V16.688C155.373 17.44 154.317 18.144 152.845 18.144C150.557 18.144 148.717 16.272 148.717 13.552ZM155.933 13.584C155.933 11.696 154.637 10.624 153.261 10.624C151.901 10.624 150.589 11.648 150.589 13.552C150.589 15.456 151.901 16.56 153.261 16.56C154.637 16.56 155.933 15.488 155.933 13.584ZM172.665 18V13.072C172.665 11.456 171.785 10.624 170.457 10.624C169.113 10.624 168.233 11.456 168.233 13.072V18H166.425V13.072C166.425 11.456 165.545 10.624 164.217 10.624C162.873 10.624 161.993 11.456 161.993 13.072V18H160.169V9.184H161.993V10.192C162.585 9.472 163.545 9.04 164.601 9.04C165.993 9.04 167.161 9.632 167.769 10.784C168.313 9.712 169.561 9.04 170.841 9.04C172.905 9.04 174.473 10.336 174.473 12.8V18H172.665ZM183.37 15.536C183.37 17.024 182.074 18.144 179.994 18.144C177.882 18.144 176.394 16.896 176.314 15.296H178.202C178.266 16.016 178.954 16.608 179.962 16.608C181.018 16.608 181.578 16.16 181.578 15.552C181.578 13.824 176.458 14.816 176.458 11.584C176.458 10.176 177.77 9.04 179.85 9.04C181.85 9.04 183.162 10.112 183.258 11.872H181.434C181.37 11.104 180.778 10.576 179.786 10.576C178.81 10.576 178.298 10.976 178.298 11.568C178.298 13.344 183.274 12.352 183.37 15.536Z" fill="black"/>
<path d="M1 12L12 12M1 12L5 16M1 12L5 8" stroke="black" stroke-width="2" stroke-linecap="round" stroke-linejoin="round"/>
</svg>
