<svg width="202" height="24" viewBox="0 0 202 24" fill="none" xmlns="http://www.w3.org/2000/svg">
<path d="M41.472 14.816C41.472 13.712 40.64 13.04 39.424 13.04H37.024V16.512H39.488C40.72 16.512 41.472 15.888 41.472 14.816ZM41.184 9.968C41.184 8.96 40.464 8.368 39.28 8.368H37.024V11.552H39.28C40.464 11.552 41.184 10.992 41.184 9.968ZM43.296 15.008C43.296 16.704 41.92 18 39.648 18H35.2V6.88H39.44C41.792 6.88 43.04 8.176 43.04 9.744C43.04 11.088 42.224 11.904 41.152 12.288C42.336 12.496 43.296 13.68 43.296 15.008ZM44.6701 13.552C44.6701 10.832 46.5101 9.04 48.8301 9.04C50.3181 9.04 51.3421 9.744 51.8861 10.464V9.184H53.7261V18H51.8861V16.688C51.3261 17.44 50.2701 18.144 48.7981 18.144C46.5101 18.144 44.6701 16.272 44.6701 13.552ZM51.8861 13.584C51.8861 11.696 50.5901 10.624 49.2141 10.624C47.8541 10.624 46.5421 11.648 46.5421 13.552C46.5421 15.456 47.8541 16.56 49.2141 16.56C50.5901 16.56 51.8861 15.488 51.8861 13.584ZM55.5139 13.584C55.5139 10.832 57.3059 9.04 59.8339 9.04C61.9939 9.04 63.4019 10.112 63.8979 11.968H61.9299C61.6259 11.12 60.9219 10.576 59.8339 10.576C58.3619 10.576 57.3859 11.664 57.3859 13.584C57.3859 15.52 58.3619 16.608 59.8339 16.608C60.9219 16.608 61.5939 16.128 61.9299 15.216H63.8979C63.4019 16.944 61.9939 18.144 59.8339 18.144C57.3059 18.144 55.5139 16.352 55.5139 13.584ZM65.7156 18V6.16H67.5396V13.04L70.7396 9.184H73.2676L69.2036 13.6L73.2676 18H70.8036L67.5396 14.208V18H65.7156ZM79.0193 15.552V10.672H77.9793V9.184H79.0193V6.992H80.8593V9.184H83.0033V10.672H80.8593V15.552C80.8593 16.208 81.1153 16.48 81.8833 16.48H83.0033V18H81.5633C79.9953 18 79.0193 17.344 79.0193 15.552ZM93.0844 13.584C93.0844 16.352 91.0364 18.144 88.5084 18.144C85.9964 18.144 84.0924 16.352 84.0924 13.584C84.0924 10.816 86.0764 9.04 88.5884 9.04C91.1004 9.04 93.0844 10.816 93.0844 13.584ZM85.9484 13.584C85.9484 15.584 87.1324 16.56 88.5084 16.56C89.8684 16.56 91.2124 15.584 91.2124 13.584C91.2124 11.584 89.9164 10.624 88.5564 10.624C87.1804 10.624 85.9484 11.584 85.9484 13.584ZM98.4358 13.552C98.4358 10.832 100.276 9.04 102.596 9.04C104.084 9.04 105.108 9.744 105.652 10.464V9.184H107.492V18H105.652V16.688C105.092 17.44 104.036 18.144 102.564 18.144C100.276 18.144 98.4358 16.272 98.4358 13.552ZM105.652 13.584C105.652 11.696 104.356 10.624 102.98 10.624C101.62 10.624 100.308 11.648 100.308 13.552C100.308 15.456 101.62 16.56 102.98 16.56C104.356 16.56 105.652 15.488 105.652 13.584ZM109.888 18V6.16H111.712V18H109.888ZM114.106 18V6.16H115.93V18H114.106ZM124.305 12H126.321C127.745 12 128.385 11.312 128.385 10.192C128.385 9.04 127.745 8.368 126.321 8.368H124.305V12ZM130.257 10.192C130.257 11.776 129.217 13.488 126.321 13.488H124.305V18H122.481V6.88H126.321C128.961 6.88 130.257 8.384 130.257 10.192ZM133.821 13.36V18H131.997V9.184H133.821V10.464C134.333 9.584 135.213 9.04 136.461 9.04V10.928H135.997C134.653 10.928 133.821 11.488 133.821 13.36ZM146.538 13.584C146.538 16.352 144.49 18.144 141.962 18.144C139.45 18.144 137.546 16.352 137.546 13.584C137.546 10.816 139.53 9.04 142.042 9.04C144.554 9.04 146.538 10.816 146.538 13.584ZM139.402 13.584C139.402 15.584 140.586 16.56 141.962 16.56C143.322 16.56 144.666 15.584 144.666 13.584C144.666 11.584 143.37 10.624 142.01 10.624C140.634 10.624 139.402 11.584 139.402 13.584ZM147.733 13.552C147.733 10.832 149.573 9.04 151.893 9.04C153.333 9.04 154.405 9.712 154.949 10.464V9.184H156.789V18.144C156.789 20.544 155.237 22.352 152.485 22.352C150.133 22.352 148.389 21.184 148.165 19.232H149.973C150.245 20.144 151.221 20.768 152.485 20.768C153.893 20.768 154.949 19.904 154.949 18.144V16.672C154.389 17.424 153.333 18.144 151.893 18.144C149.573 18.144 147.733 16.272 147.733 13.552ZM154.949 13.584C154.949 11.696 153.653 10.624 152.277 10.624C150.917 10.624 149.605 11.648 149.605 13.552C149.605 15.456 150.917 16.56 152.277 16.56C153.653 16.56 154.949 15.488 154.949 13.584ZM161.008 13.36V18H159.184V9.184H161.008V10.464C161.52 9.584 162.4 9.04 163.648 9.04V10.928H163.184C161.84 10.928 161.008 11.488 161.008 13.36ZM164.717 13.552C164.717 10.832 166.557 9.04 168.877 9.04C170.365 9.04 171.389 9.744 171.933 10.464V9.184H173.773V18H171.933V16.688C171.373 17.44 170.317 18.144 168.845 18.144C166.557 18.144 164.717 16.272 164.717 13.552ZM171.933 13.584C171.933 11.696 170.637 10.624 169.261 10.624C167.901 10.624 166.589 11.648 166.589 13.552C166.589 15.456 167.901 16.56 169.261 16.56C170.637 16.56 171.933 15.488 171.933 13.584ZM188.665 18V13.072C188.665 11.456 187.785 10.624 186.457 10.624C185.113 10.624 184.233 11.456 184.233 13.072V18H182.425V13.072C182.425 11.456 181.545 10.624 180.217 10.624C178.873 10.624 177.993 11.456 177.993 13.072V18H176.169V9.184H177.993V10.192C178.585 9.472 179.545 9.04 180.601 9.04C181.993 9.04 183.161 9.632 183.769 10.784C184.313 9.712 185.561 9.04 186.841 9.04C188.905 9.04 190.473 10.336 190.473 12.8V18H188.665ZM199.37 15.536C199.37 17.024 198.074 18.144 195.994 18.144C193.882 18.144 192.394 16.896 192.314 15.296H194.202C194.266 16.016 194.954 16.608 195.962 16.608C197.018 16.608 197.578 16.16 197.578 15.552C197.578 13.824 192.458 14.816 192.458 11.584C192.458 10.176 193.77 9.04 195.85 9.04C197.85 9.04 199.162 10.112 199.258 11.872H197.434C197.37 11.104 196.778 10.576 195.786 10.576C194.81 10.576 194.298 10.976 194.298 11.568C194.298 13.344 199.274 12.352 199.37 15.536Z" fill="black"/>
<circle cx="10.5" cy="11.5" r="10.5" fill="#879DA5"/>
<path d="M7 12L28 12M7 12L11 16M7 12L11 8" stroke="black" stroke-width="2" stroke-linecap="round" stroke-linejoin="round"/>
</svg>
